<svg width="21" height="20" viewBox="0 0 21 20" fill="none" xmlns="http://www.w3.org/2000/svg">
<g id="Vector">
<path id="Vector_2" d="M19.4786 6.79207C18.6126 5.57057 17.3067 4.86192 15.9277 4.86521H14.2341L14.3089 4.36575C14.6138 2.33105 13.4119 0.400275 11.6244 0.0532061C11.4277 0.0150188 11.2284 -0.00269517 11.0289 0.000331331C9.7755 -0.00710141 8.62563 0.790827 8.05722 2.06245L6.80072 4.86521H5.07056C2.54747 4.86837 0.502737 7.1958 0.5 10.0678V14.7974C0.502737 17.6695 2.54747 19.9969 5.07056 20H15.0494C17.2061 19.9911 19.0667 18.2747 19.521 15.8748L20.3994 11.1452C20.6876 9.61033 20.349 8.00944 19.4786 6.79207ZM2.99302 14.7974V10.0678C2.99302 8.76179 3.92315 7.70301 5.07056 7.70301H6.31708V17.1622H5.07056C3.92319 17.1622 2.99302 16.1035 2.99302 14.7974ZM17.9604 10.5578L17.0811 15.2874C16.875 16.3781 16.0295 17.1583 15.0493 17.1623H8.8101V6.62557L10.2777 3.35174C10.4332 3.02034 10.7424 2.82045 11.0721 2.83812C11.509 2.83843 11.863 3.24189 11.8627 3.73922C11.8627 3.78942 11.859 3.83954 11.8516 3.88903L11.2807 7.70301H15.9277C17.0751 7.70287 18.0053 8.76153 18.0054 10.0675C18.0055 10.2323 17.9904 10.3966 17.9604 10.5578Z" fill="black"/>
</g>
</svg>
