<svg width="27" height="26" viewBox="0 0 27 26" fill="none" xmlns="http://www.w3.org/2000/svg">
<g id="fi_11069655">
<path id="Vector" d="M7.61285 11.0943C7.02291 11.067 6.45024 10.6679 6.21994 10.1243C6.13246 9.91725 5.89462 9.82164 5.68733 9.90852C5.48083 9.9962 5.38423 10.2346 5.47171 10.4409C5.82499 11.2753 6.67022 11.8636 7.57516 11.9061C7.81002 11.9064 7.98974 11.7366 7.99986 11.5192C8.01017 11.2951 7.837 11.1047 7.61285 11.0943Z" fill="#1572A1"/>
<path id="Vector_2" d="M23.25 11.1213H15.125C13.7803 11.1213 12.6875 12.2141 12.6875 13.5588V14.4799C11.966 14.007 11.1227 13.6812 10.2026 13.562C10.0256 13.5422 9.85149 13.6366 9.77888 13.8008C9.64439 14.1055 9.05188 14.4289 8.21875 14.4289C7.38562 14.4289 6.79311 14.1055 6.65862 13.8008C6.58601 13.6362 6.41344 13.5422 6.23491 13.562C3.42865 13.9254 1.3125 16.1836 1.3125 18.8147V22.9026C1.3125 23.7988 2.04149 24.5276 2.9375 24.5276H13.5C14.396 24.5276 15.125 23.7988 15.125 22.9026V22.4963H23.25C24.5947 22.4963 25.6875 21.4035 25.6875 20.0588V13.5588C25.6875 12.2141 24.5947 11.1213 23.25 11.1213ZM14.3125 22.9026C14.3125 23.3505 13.9481 23.7151 13.5 23.7151H11.4688V21.6838C11.4688 21.4593 11.2869 21.2776 11.0625 21.2776C10.8381 21.2776 10.6562 21.4593 10.6562 21.6838V23.7151H5.78125V21.6838C5.78125 21.4593 5.59935 21.2776 5.375 21.2776C5.15065 21.2776 4.96875 21.4593 4.96875 21.6838V23.7151H2.9375C2.48939 23.7151 2.125 23.3505 2.125 22.9026V18.8147C2.125 17.3639 2.8975 16.0481 4.10031 15.2208C4.05873 15.8923 4.20346 16.5769 4.52159 17.168C3.47269 17.7839 3.5828 19.698 4.77294 20.0585C5.15816 20.0728 5.33389 19.5228 4.99967 19.315C4.6355 19.0706 4.49783 18.5175 4.70493 18.1311C5.2697 17.2013 6.63446 17.7681 6.37515 18.8238C6.22851 19.3373 6.98904 19.5685 7.15274 19.0602C7.51793 17.9266 6.48054 16.6484 5.28727 16.8677C4.91266 16.2333 4.80609 15.442 5.00091 14.731C5.34279 14.5875 5.70426 14.4757 6.08415 14.4074C6.84646 15.5003 9.59116 15.5001 10.3533 14.4074C10.8093 14.4894 11.24 14.6317 11.6397 14.8205C11.8306 15.438 11.6322 16.1625 11.149 16.5922C10.2486 16.0392 9.00219 16.7635 9.03127 17.8245C9.03125 18.6084 9.66918 19.2463 10.4531 19.2463C11.4909 19.2731 12.2179 18.0786 11.7111 17.1761C12.2154 16.7145 12.5014 16.0352 12.5175 15.3519C12.5753 15.3957 12.6319 15.4406 12.6875 15.4867V20.0588C12.6875 21.1183 13.3671 22.0188 14.3125 22.3543L14.3125 22.9026ZM11.0625 17.8245C11.0482 18.6253 9.85793 18.6252 9.84375 17.8244C9.85803 17.0236 11.0483 17.0237 11.0625 17.8245ZM22.8438 17.2151C22.8438 17.8854 22.2953 18.4338 21.625 18.4338H20.8125V19.2463C20.8125 19.9166 20.2641 20.4651 19.5938 20.4651H18.7812C18.111 20.4651 17.5625 19.9166 17.5625 19.2463V18.4338H16.75C16.0797 18.4338 15.5312 17.8854 15.5312 17.2151V16.4026C15.5312 15.7323 16.0797 15.1838 16.75 15.1838H17.5625V14.3713C17.5625 13.701 18.111 13.1526 18.7812 13.1526H19.5938C20.2641 13.1526 20.8125 13.701 20.8125 14.3713V15.1838H21.625C22.2953 15.1838 22.8438 15.7323 22.8438 16.4026V17.2151Z" fill="#1572A1"/>
<path id="Vector_3" d="M13.528 7.32712C15.8602 4.15322 12.4926 0.146288 8.96581 1.89963C5.23689 0.847504 1.56928 3.75014 2.14893 7.5912C1.65381 8.38567 2.19872 9.51878 3.1158 9.63869C3.72466 12.0738 6.18995 13.7955 8.68145 13.5387C11.6783 13.3326 13.979 10.3564 13.4264 7.41244C13.463 7.39618 13.4996 7.36369 13.528 7.32712ZM12.5936 9.19993C11.5863 13.892 4.81107 13.8803 3.83896 9.17142C3.79299 8.9371 3.56502 8.82044 3.3433 8.8465C3.03051 8.8465 2.77457 8.59056 2.77457 8.27776C2.77268 7.92182 3.09617 7.6697 3.44082 7.70901C4.92883 8.41759 6.87954 7.96941 7.84863 6.60808C8.25066 5.99363 9.41057 5.9209 9.89205 6.46997C10.5185 7.15604 11.6916 7.14746 12.2971 6.44557C12.6789 7.29995 12.7866 8.27709 12.5936 9.19993Z" fill="#1572A1"/>
<path id="Vector_4" d="M19.5938 9.49642V8.27767C19.5849 7.74399 18.7902 7.74342 18.7812 8.27767V9.49642C18.7901 10.0301 19.5848 10.0307 19.5938 9.49642Z" fill="#1572A1"/>
<path id="Vector_5" d="M17.3597 10.1455C17.6622 10.153 17.8715 9.79674 17.7112 9.53614L17.1019 8.48084C16.8268 8.02225 16.1391 8.42029 16.3981 8.88709L17.0074 9.94239C17.0828 10.0729 17.2193 10.1455 17.3597 10.1455Z" fill="#1572A1"/>
<path id="Vector_6" d="M21.3674 9.94225L21.9768 8.88695C22.2358 8.4205 21.5477 8.02171 21.273 8.4807L20.6636 9.536C20.4052 9.99841 21.0909 10.4032 21.3674 9.94225Z" fill="#1572A1"/>
</g>
</svg>
