<svg width="21" height="20" viewBox="0 0 21 20" fill="none" xmlns="http://www.w3.org/2000/svg">
<g id="Vector">
<path id="Vector_2" d="M10.5 0C4.98583 0 0.5 4.50046 0.5 10.0326C1.0025 23.3241 20 23.3208 20.5 10.0326C20.5 4.50046 16.0142 0 10.5 0ZM11.3333 14.2129V15.0489C11.3292 16.1425 9.67083 16.1416 9.66667 15.0489V14.2129H9.44333C8.55417 14.2129 7.72417 13.733 7.27833 12.9596C7.0475 12.5591 7.18417 12.0483 7.58167 11.8176C7.98083 11.5843 8.49083 11.7231 8.72 12.1219C8.86917 12.3811 9.14583 12.5408 9.4425 12.5408H11.3325C12.1633 12.5951 12.535 11.2449 11.6292 11.0693L9.095 10.6454C6.17667 10.1028 6.805 5.83563 9.66583 5.85235V5.0163C9.67083 3.92275 11.3283 3.92358 11.3325 5.0163V5.85235H11.5558C12.445 5.85235 13.275 6.33308 13.7208 7.10643C13.9517 7.50606 13.815 8.01689 13.4175 8.24847C13.0175 8.48006 12.5083 8.34295 12.2792 7.94332C12.13 7.68498 11.8533 7.52529 11.5567 7.52529H9.66667C8.83583 7.47095 8.465 8.82117 9.37 8.99674L11.9042 9.42062C14.8225 9.96321 14.1942 14.2296 11.3333 14.2129Z" fill="#1572A1"/>
</g>
</svg>
