<svg width="21" height="20" viewBox="0 0 21 20" fill="none" xmlns="http://www.w3.org/2000/svg">
<g id="Vector">
<path id="Vector_2" d="M15.9167 2.5H15.3817C15.1975 1.78655 14.782 1.15424 14.2004 0.701916C13.6187 0.249596 12.9035 0.00276146 12.1667 0L8.83333 0C8.09649 0.00276146 7.38132 0.249596 6.79964 0.701916C6.21796 1.15424 5.80254 1.78655 5.61833 2.5H5.08333C3.86816 2.50132 2.70314 2.98463 1.84389 3.84389C0.984634 4.70314 0.501323 5.86816 0.5 7.08333L0.5 15.4167C0.501323 16.6318 0.984634 17.7969 1.84389 18.6561C2.70314 19.5154 3.86816 19.9987 5.08333 20H15.9167C17.1318 19.9985 18.2967 19.5151 19.1559 18.6559C20.0151 17.7967 20.4985 16.6318 20.5 15.4167V7.08333C20.4985 5.86823 20.0151 4.70334 19.1559 3.84413C18.2967 2.98492 17.1318 2.50154 15.9167 2.5ZM5.08333 5H15.9167C16.4692 5 16.9991 5.21949 17.3898 5.61019C17.7805 6.0009 18 6.5308 18 7.08333V9.16667H3V7.08333C3 6.5308 3.21949 6.0009 3.61019 5.61019C4.0009 5.21949 4.5308 5 5.08333 5ZM15.9167 17.5H5.08333C4.5308 17.5 4.0009 17.2805 3.61019 16.8898C3.21949 16.4991 3 15.9692 3 15.4167V11.6667H8.83333C8.83333 12.1087 9.00893 12.5326 9.32149 12.8452C9.63405 13.1577 10.058 13.3333 10.5 13.3333C10.942 13.3333 11.3659 13.1577 11.6785 12.8452C11.9911 12.5326 12.1667 12.1087 12.1667 11.6667H18V15.4167C18 15.9692 17.7805 16.4991 17.3898 16.8898C16.9991 17.2805 16.4692 17.5 15.9167 17.5Z" fill="#1572A1"/>
</g>
</svg>
