<svg width="20" height="21" viewBox="0 0 20 21" fill="none" xmlns="http://www.w3.org/2000/svg">
<g id="heart-partner-handshake (1) 1">
<path id="Vector" d="M20 7.12713C20 8.50047 19.4783 9.90963 18.6825 11.2638C18.4542 10.6863 18.1025 10.1513 17.625 9.70963C18.0617 8.82464 18.3333 7.95047 18.3333 7.12713C18.3333 4.8688 16.6158 2.96047 14.5833 2.96047C12.7208 2.96047 11.66 3.71463 10.945 4.37213L7.75833 7.32963C7.46417 7.62463 7.39417 8.12047 7.6225 8.43797C7.77167 8.64547 7.99083 8.77047 8.23833 8.79047C8.48417 8.81297 8.7225 8.72297 8.895 8.5488L12.3725 5.21964L13.525 6.42297L12.4933 7.41047L16.4492 10.8821C17.3758 11.6955 17.6042 13.0613 16.98 14.0588C16.5958 14.6721 15.9683 15.0846 15.2592 15.1888C15.2108 15.1955 15.1633 15.2013 15.115 15.2055C15.1117 15.6346 14.9975 16.0596 14.7633 16.4346C14.3792 17.048 13.7517 17.4605 13.0425 17.5646C12.8883 17.5863 12.735 17.5955 12.5817 17.588C12.5367 17.9063 12.4283 18.2163 12.2525 18.4971C11.8683 19.1105 11.2408 19.5221 10.5317 19.6263C10.4125 19.6438 10.2933 19.6521 10.1758 19.6521C9.58667 19.6521 9.015 19.4396 8.56667 19.0455L5.98 16.7255C3.25083 14.2605 0 10.5946 0 7.12713C0 3.91047 2.43 1.2938 5.41667 1.2938C6.7525 1.2938 7.7775 1.60714 8.58167 2.01797L7.24917 3.25464C6.74083 3.0763 6.14083 2.96047 5.41667 2.96047C3.38417 2.96047 1.66667 4.8688 1.66667 7.12713C1.66667 9.35547 3.59417 12.3246 7.09583 15.4888L9.67417 17.8005C9.83833 17.9446 10.0658 18.0113 10.2908 17.9788C10.5192 17.9455 10.715 17.8163 10.8408 17.6138C11.0325 17.3063 10.9375 16.8496 10.6233 16.5746L7.95083 14.0338L9.0975 12.8238L12.1992 15.7521C12.3483 15.8821 12.5792 15.9505 12.8008 15.9155C13.0292 15.8821 13.225 15.7521 13.3508 15.5505C13.5425 15.243 13.4475 14.7863 13.1333 14.5105L10.1667 11.8246L11.2792 10.5846L14.3975 13.3596C14.5642 13.5063 14.7925 13.5746 15.0167 13.5396C15.245 13.5063 15.4408 13.3763 15.5667 13.1746C15.7583 12.8671 15.6633 12.4105 15.3492 12.1346L11.2842 8.56713L10.0592 9.73964C9.6 10.1996 8.96583 10.4596 8.30583 10.4596C7.43417 10.4596 6.70167 10.013 6.26833 9.4113C5.56417 8.43297 5.70667 7.02213 6.6 6.1288L9.8125 3.14714C10.6808 2.34964 12.1158 1.29297 14.5817 1.29297C17.5683 1.29297 19.9983 3.90964 19.9983 7.1263L20 7.12713Z" fill="#1572A1"/>
</g>
</svg>
