<svg width="33" height="32" viewBox="0 0 33 32" fill="none" xmlns="http://www.w3.org/2000/svg">
<g id="Group">
<g id="Group_2">
<g id="Group_3">
<path id="Vector" d="M24.625 14.375C25.3154 14.375 25.875 13.8154 25.875 13.125C25.875 12.4346 25.3154 11.875 24.625 11.875C23.9346 11.875 23.375 12.4346 23.375 13.125C23.375 13.8154 23.9346 14.375 24.625 14.375Z" fill="#B2C8DF"/>
<path id="Vector_2" d="M27.5 2.5H25.875V1.25C25.875 0.559625 25.3154 0 24.625 0C23.9346 0 23.375 0.559625 23.375 1.25V2.5H17.6875V1.25C17.6875 0.559625 17.1279 0 16.4375 0C15.7471 0 15.1875 0.559625 15.1875 1.25V2.5H9.5625V1.25C9.5625 0.559625 9.00288 0 8.3125 0C7.62213 0 7.0625 0.559625 7.0625 1.25V2.5H5.5C2.743 2.5 0.5 4.743 0.5 7.5V27C0.5 29.757 2.743 32 5.5 32H15.0625C15.7529 32 16.3125 31.4404 16.3125 30.75C16.3125 30.0596 15.7529 29.5 15.0625 29.5H5.5C4.1215 29.5 3 28.3785 3 27V7.5C3 6.1215 4.1215 5 5.5 5H7.0625V6.25C7.0625 6.94037 7.62213 7.5 8.3125 7.5C9.00288 7.5 9.5625 6.94037 9.5625 6.25V5H15.1875V6.25C15.1875 6.94037 15.7471 7.5 16.4375 7.5C17.1279 7.5 17.6875 6.94037 17.6875 6.25V5H23.375V6.25C23.375 6.94037 23.9346 7.5 24.625 7.5C25.3154 7.5 25.875 6.94037 25.875 6.25V5H27.5C28.8785 5 30 6.1215 30 7.5V14.625C30 15.3154 30.5596 15.875 31.25 15.875C31.9404 15.875 32.5 15.3154 32.5 14.625V7.5C32.5 4.743 30.257 2.5 27.5 2.5Z" fill="#B2C8DF"/>
<path id="Vector_3" d="M24.9375 16.875C20.7675 16.875 17.375 20.2675 17.375 24.4375C17.375 28.6075 20.7675 32 24.9375 32C29.1075 32 32.5 28.6075 32.5 24.4375C32.5 20.2675 29.1075 16.875 24.9375 16.875ZM24.9375 29.5C22.1461 29.5 19.875 27.229 19.875 24.4375C19.875 21.646 22.1461 19.375 24.9375 19.375C27.7289 19.375 30 21.646 30 24.4375C30 27.229 27.7289 29.5 24.9375 29.5Z" fill="#B2C8DF"/>
<path id="Vector_4" d="M26.75 23.1875H26.1875V21.875C26.1875 21.1846 25.6279 20.625 24.9375 20.625C24.2471 20.625 23.6875 21.1846 23.6875 21.875V24.4375C23.6875 25.1279 24.2471 25.6875 24.9375 25.6875H26.75C27.4404 25.6875 28 25.1279 28 24.4375C28 23.7471 27.4404 23.1875 26.75 23.1875Z" fill="#B2C8DF"/>
<path id="Vector_5" d="M19.1875 14.375C19.8779 14.375 20.4375 13.8154 20.4375 13.125C20.4375 12.4346 19.8779 11.875 19.1875 11.875C18.4971 11.875 17.9375 12.4346 17.9375 13.125C17.9375 13.8154 18.4971 14.375 19.1875 14.375Z" fill="#B2C8DF"/>
<path id="Vector_6" d="M13.75 19.8125C14.4404 19.8125 15 19.2529 15 18.5625C15 17.8721 14.4404 17.3125 13.75 17.3125C13.0596 17.3125 12.5 17.8721 12.5 18.5625C12.5 19.2529 13.0596 19.8125 13.75 19.8125Z" fill="#B2C8DF"/>
<path id="Vector_7" d="M8.3125 14.375C9.00286 14.375 9.5625 13.8154 9.5625 13.125C9.5625 12.4346 9.00286 11.875 8.3125 11.875C7.62214 11.875 7.0625 12.4346 7.0625 13.125C7.0625 13.8154 7.62214 14.375 8.3125 14.375Z" fill="#B2C8DF"/>
<path id="Vector_8" d="M8.3125 19.8125C9.00286 19.8125 9.5625 19.2529 9.5625 18.5625C9.5625 17.8721 9.00286 17.3125 8.3125 17.3125C7.62214 17.3125 7.0625 17.8721 7.0625 18.5625C7.0625 19.2529 7.62214 19.8125 8.3125 19.8125Z" fill="#B2C8DF"/>
<path id="Vector_9" d="M8.3125 25.25C9.00286 25.25 9.5625 24.6904 9.5625 24C9.5625 23.3096 9.00286 22.75 8.3125 22.75C7.62214 22.75 7.0625 23.3096 7.0625 24C7.0625 24.6904 7.62214 25.25 8.3125 25.25Z" fill="#B2C8DF"/>
<path id="Vector_10" d="M13.75 25.25C14.4404 25.25 15 24.6904 15 24C15 23.3096 14.4404 22.75 13.75 22.75C13.0596 22.75 12.5 23.3096 12.5 24C12.5 24.6904 13.0596 25.25 13.75 25.25Z" fill="#B2C8DF"/>
<path id="Vector_11" d="M13.75 14.375C14.4404 14.375 15 13.8154 15 13.125C15 12.4346 14.4404 11.875 13.75 11.875C13.0596 11.875 12.5 12.4346 12.5 13.125C12.5 13.8154 13.0596 14.375 13.75 14.375Z" fill="#B2C8DF"/>
</g>
</g>
</g>
</svg>
