<svg width="18" height="22" viewBox="0 0 18 22" fill="none" xmlns="http://www.w3.org/2000/svg">
<g id="location">
<path id="Vector" d="M9 0.5C6.74657 0.502547 4.58613 1.42336 2.99263 3.06045C1.39913 4.69753 0.502705 6.91719 0.5 9.23249C0.5 11.4812 2.19472 15.0005 5.53732 19.6922C5.93525 20.2523 6.45626 20.708 7.05797 21.0221C7.65968 21.3363 8.32507 21.5 9 21.5C9.67493 21.5 10.3403 21.3363 10.942 21.0221C11.5437 20.708 12.0648 20.2523 12.4627 19.6922C15.8053 15.0005 17.5 11.4812 17.5 9.23249C17.4973 6.91719 16.6009 4.69753 15.0074 3.06045C13.4139 1.42336 11.2534 0.502547 9 0.5ZM9 12.7132C8.32626 12.7132 7.66766 12.508 7.10747 12.1234C6.54727 11.7388 6.11066 11.1922 5.85283 10.5526C5.595 9.91309 5.52754 9.20935 5.65898 8.53042C5.79042 7.85149 6.11486 7.22785 6.59126 6.73837C7.06766 6.24888 7.67464 5.91554 8.33543 5.78049C8.99622 5.64545 9.68115 5.71476 10.3036 5.97966C10.9261 6.24457 11.4581 6.69317 11.8324 7.26874C12.2067 7.84432 12.4065 8.521 12.4065 9.21324C12.4065 10.1415 12.0476 11.0317 11.4087 11.6881C10.7699 12.3445 9.90345 12.7132 9 12.7132Z" fill="#1572A1"/>
</g>
</svg>
