<svg width="33" height="32" viewBox="0 0 33 32" fill="none" xmlns="http://www.w3.org/2000/svg">
<g id="heart-partner-handshake (1) 1" clip-path="url(#clip0_537_5621)">
<path id="Vector" d="M32.5 10.6667C32.5 12.864 31.6653 15.1187 30.392 17.2854C30.0267 16.3614 29.464 15.5054 28.7 14.7987C29.3987 13.3827 29.8333 11.984 29.8333 10.6667C29.8333 7.05336 27.0853 4.00003 23.8333 4.00003C20.8533 4.00003 19.156 5.2067 18.012 6.2587L12.9133 10.9907C12.4427 11.4627 12.3307 12.256 12.696 12.764C12.9347 13.096 13.2853 13.296 13.6813 13.328C14.0747 13.364 14.456 13.22 14.732 12.9414L20.296 7.6147L22.14 9.54003L20.4893 11.12L26.8187 16.6747C28.3013 17.976 28.6667 20.1614 27.668 21.7574C27.0533 22.7387 26.0493 23.3987 24.9147 23.5654C24.8373 23.576 24.7613 23.5854 24.684 23.592C24.6787 24.2787 24.496 24.9587 24.1213 25.5587C23.5067 26.54 22.5027 27.2 21.368 27.3667C21.1213 27.4014 20.876 27.416 20.6307 27.404C20.5587 27.9134 20.3853 28.4094 20.104 28.8587C19.4893 29.84 18.4853 30.4987 17.3507 30.6654C17.16 30.6934 16.9693 30.7067 16.7813 30.7067C15.8387 30.7067 14.924 30.3667 14.2067 29.736L10.068 26.024C5.70133 22.08 0.5 16.2147 0.5 10.6667C0.5 5.52003 4.388 1.33336 9.16667 1.33336C11.304 1.33336 12.944 1.8347 14.2307 2.49203L12.0987 4.4707C11.2853 4.18536 10.3253 4.00003 9.16667 4.00003C5.91467 4.00003 3.16667 7.05336 3.16667 10.6667C3.16667 14.232 6.25067 18.9827 11.8533 24.0454L15.9787 27.744C16.2413 27.9747 16.6053 28.0814 16.9653 28.0294C17.3307 27.976 17.644 27.7694 17.8453 27.4454C18.152 26.9534 18 26.2227 17.4973 25.7827L13.2213 21.7174L15.056 19.7814L20.0187 24.4667C20.2573 24.6747 20.6267 24.784 20.9813 24.728C21.3467 24.6747 21.66 24.4667 21.8613 24.144C22.168 23.652 22.016 22.9214 21.5133 22.48L16.7667 18.1827L18.5467 16.1987L23.536 20.6387C23.8027 20.8734 24.168 20.9827 24.5267 20.9267C24.892 20.8734 25.2053 20.6654 25.4067 20.3427C25.7133 19.8507 25.5613 19.12 25.0587 18.6787L18.5547 12.9707L16.5947 14.8467C15.86 15.5827 14.8453 15.9987 13.7893 15.9987C12.3947 15.9987 11.2227 15.284 10.5293 14.3214C9.40267 12.756 9.63067 10.4987 11.06 9.06936L16.2 4.2987C17.5893 3.0227 19.8853 1.33203 23.8307 1.33203C28.6093 1.33203 32.4973 5.5187 32.4973 10.6654L32.5 10.6667Z" fill="#B2C8DF"/>
</g>
<defs>
<clipPath id="clip0_537_5621">
<rect width="32" height="32" fill="white" transform="translate(0.5)"/>
</clipPath>
</defs>
</svg>
