<svg width="221" height="236" viewBox="0 0 221 236" fill="none" xmlns="http://www.w3.org/2000/svg">
<g id="Group">
<g id="Group_2">
<path id="Vector" d="M209.898 235.579C210.925 235.579 216.076 235.24 216.6 228.556C217.924 211.651 218.823 194.664 219.502 177.722C220.156 161.4 220.363 144.879 219.586 128.492C218.789 111.685 217.129 94.5449 213.241 78.1486C209.677 63.1203 204.325 47.6962 195.256 35.0357C187.39 24.0536 175.746 16.1822 163.436 10.9501C156.216 7.88158 148.631 5.66471 140.917 4.25864C134.856 3.16167 128.585 2.51734 122.266 2.34078C118.748 1.40982 115.124 0.932423 111.479 0.921875C111.473 0.921875 111.361 0.921875 111.354 0.921875C104.922 0.921875 98.2623 2.38527 92.0446 5.15841C61.2786 11.9039 35.498 29.9856 21.2364 54.8545C18.2913 59.9995 15.7796 65.4752 13.5966 71.5186C5.82292 75.5548 0.7953 83.6238 0.7953 92.5261V114.312C0.7953 117.889 1.61894 121.414 3.1924 124.634C1.75836 138.549 0.863173 152.957 0.45823 168.63C0.34358 174.023 0.28488 178.438 0.273873 182.507C0.205084 197.129 0.566001 212.428 1.37772 229.278C1.54786 232.805 4.45767 235.579 7.99026 235.579H209.898Z" fill="white"/>
</g>
<g id="Group_3">
<g id="Group_4">
<path id="Vector_2" d="M214.164 163.681C213.811 179.873 212.862 196.028 211.851 211.976C211.717 214.131 211.571 216.285 211.437 218.44C211.376 219.317 210.853 228.959 210.743 228.959H198.143L101.801 217.227L29.8261 228.959H8.8351C8.09263 213.535 7.66659 198.037 7.73951 182.539C7.75143 177.95 7.82481 173.36 7.92203 168.77C8.37238 151.325 9.49228 133.904 11.5986 116.616C14.0457 96.5044 17.5884 76.0275 27.8266 58.144C49.3019 20.6961 96.3427 2.76354 140.584 10.7739C145.259 11.626 149.86 12.7706 154.328 14.268C169.851 19.4176 184.703 28.5359 192.811 42.0737C202.076 57.5107 207.31 74.7732 210.123 92.1702C213.909 115.618 214.688 139.674 214.164 163.681Z" fill="#FFC150"/>
</g>
<g id="Group_5">
<g id="Group_6">
<g id="Group_7">
<path id="Vector_3" d="M198.204 211.186C197.705 218.624 198.009 226.209 198.143 228.96H155.802C155.802 228.96 40.1103 183.149 48.0477 153.395C51.8339 139.176 57.4582 127.038 65.7854 121.463L106.617 98.259L139.147 95.3496C139.147 95.3496 148.679 103.64 161.729 110.275C174.792 116.91 193.638 127.477 197.789 143.425C201.929 159.385 198.825 201.861 198.204 211.186Z" fill="#D4DEE7"/>
</g>
<g id="Group_8">
<g id="Group_9">
<g id="Group_10">
<path id="Vector_4" d="M152.149 68.8451C149.483 72.0471 145.161 73.6297 141.009 73.3862C140.474 73.3499 139.95 73.3013 139.439 73.2036L139.042 105.818L105.85 106.89L106.509 100.637L106.837 92.3291L106.825 89.1395C100.275 88.6162 94.2489 86.9116 91.0345 82.6265C84.9842 74.5671 84.2656 39.6273 84.278 39.2013C84.8746 22.5592 98.8385 9.54502 115.48 10.1293C132.122 10.7135 145.136 24.6898 144.552 41.3315C144.479 43.3525 144.211 45.3125 143.761 47.1997C143.676 48.0761 143.457 50.109 143.079 52.7996C143.651 52.6414 144.26 52.5075 144.93 52.4708C148.338 52.3245 151.759 54.2117 153.439 57.182C155.497 60.7857 154.803 65.6308 152.149 68.8451Z" fill="#FF9285"/>
</g>
<g id="Group_11">
<g id="Group_12">
<g id="Group_13">
<path id="Vector_5" d="M96.4973 58.5061C96.4813 60.1805 95.111 61.5251 93.4366 61.509C91.7623 61.493 90.4181 60.1227 90.4337 58.4484C90.4498 56.774 91.8201 55.4299 93.4944 55.4454C95.1688 55.4615 96.5129 56.8318 96.4973 58.5061Z" fill="#371005"/>
</g>
<g id="Group_14">
<path id="Vector_6" d="M122.443 57.6243C122.427 59.2987 121.057 60.6433 119.382 60.6272C117.708 60.6112 116.364 59.2409 116.38 57.5665C116.396 55.8922 117.766 54.5476 119.44 54.5636C121.115 54.5797 122.459 55.95 122.443 57.6243Z" fill="#371005"/>
</g>
<g id="Group_15">
<path id="Vector_7" d="M105.379 73.826C104.662 73.826 103.949 73.6998 103.282 73.438C103.115 73.3724 103.033 73.1839 103.099 73.0179C103.164 72.8533 103.352 72.7703 103.519 72.8349C105.538 73.6278 108.041 73.0179 109.468 71.3816C109.586 71.2482 109.791 71.2362 109.925 71.3504C110.06 71.4688 110.073 71.6724 109.956 71.8086C108.826 73.1032 107.096 73.826 105.379 73.826Z" fill="#371005"/>
</g>
</g>
<g id="Group_16">
<g id="Group_17">
<path id="Vector_8" d="M140.596 68.2006C140.59 68.2006 140.585 68.2006 140.58 68.2006C140.416 68.1919 140.292 68.052 140.3 67.8892C140.604 62.4126 144.461 57.4097 149.679 55.7226C149.833 55.6721 150.001 55.757 150.051 55.9133C150.101 56.0683 150.017 56.2344 149.861 56.2853C144.949 57.8734 141.176 62.7671 140.891 67.9218C140.882 68.0786 140.752 68.2006 140.596 68.2006Z" fill="#371005"/>
</g>
<g id="Group_18">
<path id="Vector_9" d="M140.667 68.1865C140.63 68.1865 140.592 68.18 140.556 68.1649C140.405 68.1035 140.332 67.931 140.393 67.7801C141.815 64.2751 145.301 61.6927 149.067 61.3552C149.232 61.3377 149.373 61.4606 149.388 61.6225C149.403 61.7853 149.282 61.9298 149.12 61.9435C145.568 62.2623 142.281 64.6974 140.941 68.0021C140.895 68.1177 140.784 68.1865 140.667 68.1865Z" fill="#371005"/>
</g>
</g>
</g>
</g>
<g id="Group_19" opacity="0.28">
<path id="Vector_10" d="M130.856 85.3047C130.856 85.3047 128.677 93.4856 114.385 95.4576C110.598 95.9813 108.163 95.9442 106.702 95.7374L106.837 92.3291L106.825 89.1395C106.825 89.1395 119.144 91.0995 130.856 85.3047Z" fill="#371005"/>
</g>
<g id="Group_20">
<path id="Vector_11" d="M105.826 71.1127C104.312 71.1127 102.799 70.9659 101.312 70.6752C100.807 70.5761 100.254 70.4101 99.9763 69.9295C99.7814 69.5956 99.7892 69.2099 99.7952 68.9284C99.891 64.2727 100.529 59.6257 101.691 55.1163C101.735 54.9429 101.909 54.8352 102.085 54.8838C102.258 54.9278 102.362 55.1048 102.317 55.2782C101.168 59.739 100.538 64.3364 100.443 68.9417C100.437 69.2067 100.44 69.4392 100.536 69.6043C100.684 69.8607 101.057 69.9653 101.437 70.0396C103.228 70.3908 105.059 70.5225 106.887 70.4404C107.072 70.4427 107.217 70.5697 107.225 70.7485C107.234 70.9274 107.096 71.0792 106.917 71.087C106.554 71.104 106.19 71.1127 105.826 71.1127Z" fill="#371005"/>
</g>
<g id="Group_21">
<path id="Vector_12" d="M114.566 48.2526C114.522 48.5993 114.48 48.9644 114.614 49.2872C114.856 49.8673 115.552 50.0856 116.169 50.2067C117.973 50.5607 119.823 50.6759 121.657 50.5484C122.219 50.5094 122.797 50.442 123.289 50.1687C124.115 49.7105 124.558 48.697 124.438 47.7601C124.179 45.7468 121.461 44.2945 119.572 44.5022C117.513 44.7287 114.844 46.0747 114.566 48.2526Z" fill="#CA6140"/>
</g>
<g id="Group_22">
<path id="Vector_13" d="M97.0358 49.0807C97.0798 49.4274 97.122 49.7925 96.9877 50.1153C96.7464 50.6955 96.0494 50.9138 95.4325 51.0348C93.6289 51.3889 91.7784 51.504 89.9449 51.3765C89.3827 51.3375 88.8049 51.2701 88.3123 50.9968C87.4864 50.5386 87.0438 49.5251 87.164 48.5882C87.4222 46.575 90.1403 45.1226 92.0297 45.3303C94.0893 45.5569 96.7579 46.9029 97.0358 49.0807Z" fill="#CA6140"/>
</g>
<g id="Group_23">
<path id="Vector_14" d="M134.167 16.4941C130.927 18.8243 129.238 22.7091 127.864 26.4563C126.629 29.8238 125.516 33.2917 125.352 36.8747C125.188 40.4578 126.067 44.21 128.419 46.9181C128.238 48.3535 127.958 49.7068 128.482 51.0555C129.031 52.4685 130.267 53.4962 131.549 54.3052C133.293 55.4054 135.336 56.2405 137.377 55.9497C137.866 57.7511 138.553 59.5612 139.17 61.3231C139.208 61.4341 139.26 61.5579 139.37 61.5992C139.562 61.6717 139.725 61.4433 139.805 61.2534C140.939 58.5591 141.968 55.8199 142.886 53.0445C145.087 52.4061 146.915 52.5313 148.906 53.2091C149.389 51.577 150.146 49.7912 150.49 48.1246C151.382 43.7959 152.279 39.3837 151.818 34.9881C151.359 30.597 149.51 26.3623 146.603 23.0393C143.697 19.7158 138.458 17.5333 134.167 16.4941Z" fill="#CA6140"/>
</g>
<g id="Group_24">
<path id="Vector_15" d="M134.753 16.5748C133.829 14.9353 132.283 13.7425 130.692 12.7381C125.234 9.29543 118.759 7.56193 112.306 7.54313C105.854 7.52432 99.4355 9.1895 93.6751 12.0966C91.2032 13.3439 88.7722 14.8871 87.2294 17.1861C85.899 19.1686 85.3354 21.5524 84.7966 23.8784C83.0342 25.2643 81.4002 26.5319 80.0675 28.3351C78.7348 30.1383 77.8373 32.3497 77.99 34.5867C78.0625 35.6465 78.3863 36.7197 79.0838 37.5208C80.1427 38.7375 81.9079 39.1388 83.5088 38.9407C85.1093 38.7421 86.5952 38.0317 88.048 37.3314C88.6208 40.4614 91.9581 42.6333 95.0852 43.2203C98.2124 43.8073 101.502 42.7319 104.033 40.803C106.564 38.8742 108.403 36.1625 109.786 33.2971C111.307 35.9442 114.585 36.8682 117.584 36.295C120.582 35.7217 123.134 33.6493 124.88 31.1454C125.867 29.7306 126.636 28.1677 127.697 26.808C128.723 25.4927 129.998 24.3962 131.107 23.1502C132.629 21.4405 133.952 18.7196 134.753 16.5748Z" fill="#CA6140"/>
</g>
</g>
<g id="Group_25">
<path id="Vector_16" d="M106.613 97.4247L118.632 105.713L139.147 95.1455L142.254 125.399L118.632 108.615L96.6665 121.048L106.613 97.4247Z" fill="#FFECDC"/>
</g>
</g>
<g id="Group_26">
<g id="Group_27">
<g id="Group_28">
<path id="Vector_17" d="M143.596 107.537L153.971 85.7498C154.254 85.155 154.959 84.8936 155.561 85.1596L191.16 100.862C191.784 101.137 192.06 101.871 191.772 102.49L180.806 126.029C180.517 126.65 179.773 126.91 179.159 126.605L144.152 109.15C143.558 108.854 143.311 108.136 143.596 107.537Z" fill="#371005"/>
</g>
<g id="Group_29">
<g id="Group_30">
<path id="Vector_18" d="M154.179 95.8746L156.336 91.3446C156.395 91.2208 156.541 91.1667 156.667 91.2217L164.068 94.4865C164.198 94.5438 164.255 94.6965 164.196 94.8249L161.916 99.7191C161.856 99.8479 161.701 99.902 161.573 99.8388L154.294 96.2094C154.17 96.1484 154.119 95.9989 154.179 95.8746Z" fill="#FFECDC"/>
</g>
<g id="Group_31">
<path id="Vector_19" d="M184.113 106.337C185.543 106.337 186.703 105.177 186.703 103.746C186.703 102.316 185.543 101.156 184.113 101.156C182.682 101.156 181.522 102.316 181.522 103.746C181.522 105.177 182.682 106.337 184.113 106.337Z" fill="#FFECDC"/>
</g>
<g id="Group_32">
<g id="Group_33">
<path id="Vector_20" d="M152.438 103.532C152.486 103.545 152.52 103.576 152.54 103.62C152.559 103.668 152.559 103.713 152.539 103.761C152.52 103.806 152.489 103.838 152.442 103.856C152.397 103.873 152.352 103.872 152.307 103.85C152.22 103.804 152.13 103.759 152.034 103.713C151.938 103.667 151.841 103.625 151.744 103.584C151.649 103.545 151.553 103.508 151.458 103.476C151.364 103.443 151.274 103.413 151.189 103.39C151.141 103.373 151.108 103.342 151.086 103.297C151.065 103.251 151.064 103.205 151.083 103.159C151.101 103.113 151.135 103.08 151.183 103.062C151.23 103.044 151.277 103.046 151.321 103.071C151.439 103.132 151.558 103.192 151.682 103.248C151.706 103.259 151.724 103.251 151.733 103.227L152.651 101.003C152.665 100.968 152.654 100.953 152.617 100.956L152.236 100.98C152.208 100.981 152.183 100.978 152.159 100.968C152.091 100.94 152.055 100.888 152.049 100.817C152.051 100.803 152.054 100.788 152.055 100.775C152.054 100.763 152.056 100.753 152.061 100.741C152.088 100.675 152.139 100.641 152.214 100.636L152.933 100.593C152.957 100.591 152.981 100.594 153.006 100.604C153.046 100.621 153.077 100.65 153.096 100.692C153.115 100.734 153.115 100.776 153.096 100.824L152.051 103.358C152.041 103.383 152.049 103.401 152.076 103.412C152.203 103.458 152.325 103.498 152.438 103.532Z" fill="#FFECDC"/>
</g>
<g id="Group_34">
<path id="Vector_21" d="M155.244 104.125C155.292 104.145 155.327 104.181 155.347 104.228C155.367 104.276 155.365 104.323 155.339 104.369L155.172 104.702C155.141 104.769 155.093 104.815 155.024 104.842C154.955 104.871 154.887 104.87 154.819 104.841L153.122 104.142C153.054 104.114 153.005 104.066 152.978 103.998C152.949 103.932 152.951 103.865 152.986 103.8C153.094 103.606 153.226 103.457 153.381 103.35C153.535 103.246 153.715 103.172 153.919 103.127C154.124 103.083 154.35 103.058 154.597 103.052C154.798 103.044 154.964 103.033 155.098 103.015C155.231 102.999 155.338 102.959 155.42 102.894C155.502 102.83 155.566 102.723 155.61 102.576C155.651 102.417 155.637 102.27 155.569 102.134C155.501 101.998 155.362 101.887 155.152 101.801C154.989 101.734 154.839 101.706 154.699 101.718C154.56 101.732 154.44 101.785 154.34 101.881C154.336 101.883 154.334 101.887 154.33 101.895C154.325 101.91 154.328 101.923 154.341 101.937C154.376 101.978 154.395 102.022 154.398 102.07C154.403 102.118 154.397 102.161 154.38 102.202C154.354 102.264 154.308 102.314 154.244 102.349C154.178 102.383 154.105 102.385 154.023 102.352C153.936 102.316 153.882 102.258 153.865 102.179C153.847 102.099 153.855 102.017 153.891 101.929C153.935 101.823 154.006 101.727 154.106 101.64C154.273 101.502 154.461 101.428 154.668 101.412C154.875 101.397 155.071 101.428 155.255 101.504C155.405 101.566 155.537 101.652 155.653 101.763C155.767 101.875 155.852 102.006 155.906 102.155C155.96 102.305 155.97 102.469 155.934 102.649C155.921 102.704 155.904 102.756 155.884 102.805C155.827 102.944 155.749 103.051 155.649 103.126C155.549 103.201 155.438 103.256 155.31 103.286C155.184 103.32 155.049 103.34 154.906 103.348C154.761 103.359 154.617 103.368 154.469 103.374C154.323 103.383 154.18 103.399 154.043 103.423C153.905 103.448 153.778 103.492 153.662 103.554C153.545 103.618 153.445 103.712 153.362 103.837L153.359 103.845C153.349 103.867 153.356 103.882 153.378 103.891L154.871 104.507C154.893 104.517 154.907 104.511 154.916 104.492C154.936 104.443 154.953 104.395 154.965 104.35C154.977 104.304 154.991 104.261 155.007 104.22C155.028 104.174 155.06 104.141 155.105 104.125C155.151 104.105 155.197 104.106 155.244 104.125Z" fill="#FFECDC"/>
</g>
<g id="Group_35">
<path id="Vector_22" d="M157.684 104.229C157.647 104.225 157.643 104.235 157.672 104.258C157.815 104.368 157.915 104.498 157.97 104.646C158.026 104.795 158.012 104.973 157.926 105.18C157.861 105.341 157.755 105.465 157.613 105.555C157.469 105.644 157.304 105.692 157.116 105.701C156.928 105.709 156.733 105.671 156.532 105.589C156.264 105.479 156.069 105.326 155.947 105.13C155.823 104.935 155.779 104.723 155.811 104.499C155.822 104.432 155.836 104.379 155.854 104.336C155.893 104.24 155.95 104.169 156.025 104.125C156.1 104.078 156.18 104.075 156.268 104.11C156.346 104.142 156.397 104.195 156.42 104.267C156.442 104.34 156.44 104.408 156.415 104.469C156.395 104.517 156.365 104.555 156.324 104.586C156.283 104.617 156.231 104.632 156.17 104.634C156.143 104.631 156.128 104.644 156.126 104.672C156.122 104.783 156.144 104.881 156.193 104.961C156.243 105.042 156.308 105.11 156.39 105.166C156.474 105.22 156.559 105.266 156.649 105.303C156.722 105.332 156.806 105.354 156.9 105.369C156.996 105.382 157.089 105.382 157.184 105.371C157.278 105.359 157.364 105.33 157.44 105.282C157.516 105.236 157.574 105.167 157.612 105.074C157.637 105.011 157.657 104.946 157.671 104.876C157.682 104.807 157.674 104.733 157.645 104.657C157.617 104.58 157.556 104.498 157.461 104.416C157.366 104.331 157.224 104.246 157.034 104.159C157 104.141 156.974 104.114 156.958 104.077C156.942 104.04 156.941 104.002 156.958 103.964C156.973 103.926 157 103.901 157.038 103.884C157.076 103.871 157.114 103.87 157.153 103.882C157.367 103.958 157.54 103.992 157.675 103.984C157.808 103.975 157.912 103.939 157.986 103.875C158.061 103.813 158.115 103.738 158.15 103.654C158.185 103.571 158.193 103.476 158.175 103.373C158.156 103.271 158.111 103.17 158.035 103.075C157.961 102.978 157.85 102.901 157.706 102.84C157.379 102.706 157.115 102.729 156.913 102.911C156.909 102.915 156.905 102.92 156.903 102.926C156.897 102.94 156.899 102.952 156.91 102.966C156.946 103.011 156.966 103.056 156.971 103.105C156.974 103.151 156.968 103.197 156.951 103.241C156.926 103.3 156.88 103.348 156.815 103.383C156.75 103.418 156.677 103.418 156.599 103.386C156.511 103.35 156.458 103.292 156.437 103.211C156.417 103.128 156.425 103.044 156.461 102.957C156.47 102.932 156.482 102.909 156.497 102.886C156.511 102.864 156.526 102.84 156.542 102.819C156.622 102.718 156.724 102.633 156.85 102.564C156.974 102.495 157.121 102.456 157.285 102.447C157.449 102.439 157.628 102.476 157.825 102.556C157.99 102.624 158.124 102.709 158.225 102.811C158.327 102.913 158.4 103.024 158.447 103.139C158.492 103.255 158.514 103.37 158.514 103.482C158.514 103.595 158.497 103.694 158.46 103.782C158.393 103.945 158.287 104.063 158.142 104.137C157.998 104.211 157.844 104.242 157.684 104.229Z" fill="#FFECDC"/>
</g>
<g id="Group_36">
<path id="Vector_23" d="M158.872 106.582C158.824 106.566 158.79 106.536 158.77 106.489C158.747 106.444 158.747 106.399 158.766 106.353C158.785 106.306 158.817 106.274 158.866 106.255C158.914 106.236 158.959 106.239 159.003 106.265C159.047 106.289 159.095 106.315 159.148 106.341C159.2 106.367 159.251 106.393 159.302 106.417C159.327 106.427 159.344 106.419 159.354 106.395L159.577 105.857C159.586 105.832 159.58 105.815 159.555 105.805L158.384 105.321C158.316 105.293 158.282 105.24 158.282 105.164C158.283 105.138 158.289 105.112 158.3 105.086C158.308 105.068 158.317 105.05 158.332 105.032C158.345 105.017 158.359 105.001 158.377 104.99L160.284 103.738C160.32 103.71 160.36 103.696 160.404 103.694C160.449 103.691 160.489 103.698 160.527 103.714C160.595 103.742 160.642 103.789 160.666 103.855C160.693 103.92 160.691 103.986 160.666 104.048L160.016 105.623C160.007 105.648 160.014 105.665 160.038 105.674L160.471 105.853C160.512 105.87 160.541 105.897 160.556 105.935C160.573 105.974 160.572 106.012 160.556 106.051C160.54 106.091 160.512 106.119 160.473 106.135C160.435 106.153 160.396 106.151 160.356 106.134L159.923 105.955C159.898 105.946 159.881 105.953 159.87 105.978L159.648 106.516C159.638 106.54 159.646 106.558 159.669 106.567C159.724 106.587 159.78 106.606 159.836 106.624C159.89 106.642 159.942 106.657 159.99 106.671C160.038 106.685 160.073 106.715 160.094 106.761C160.114 106.809 160.115 106.855 160.096 106.901C160.077 106.948 160.044 106.979 159.997 106.995C159.95 107.013 159.903 107.011 159.858 106.989C159.774 106.945 159.693 106.904 159.614 106.865C159.535 106.826 159.455 106.79 159.377 106.756C159.298 106.724 159.216 106.694 159.132 106.666C159.049 106.638 158.961 106.61 158.872 106.582ZM160.269 104.179C160.275 104.164 160.275 104.151 160.267 104.141C160.261 104.132 160.247 104.133 160.229 104.145L158.776 105.101C158.766 105.109 158.76 105.115 158.759 105.119C158.752 105.135 158.761 105.147 158.782 105.155L159.671 105.523C159.696 105.532 159.713 105.526 159.723 105.501L160.269 104.179Z" fill="#FFECDC"/>
</g>
<g id="Group_37">
<path id="Vector_24" d="M163.334 106.217C163.554 106.295 163.721 106.407 163.837 106.556C163.953 106.703 164.02 106.868 164.04 107.048C164.059 107.227 164.032 107.408 163.958 107.586C163.89 107.75 163.785 107.882 163.639 107.983C163.494 108.083 163.329 108.145 163.144 108.168C162.957 108.19 162.769 108.162 162.579 108.083C162.451 108.03 162.33 107.957 162.216 107.864C162.102 107.77 162.011 107.652 161.943 107.506C161.875 107.361 161.847 107.186 161.855 106.98C161.863 106.774 161.924 106.535 162.038 106.26C162.169 105.941 162.327 105.672 162.513 105.451C162.7 105.23 162.909 105.083 163.141 105.006C163.373 104.931 163.624 104.947 163.894 105.059C164.067 105.131 164.202 105.22 164.296 105.326C164.392 105.433 164.454 105.538 164.481 105.648C164.509 105.756 164.506 105.854 164.471 105.937C164.439 106.014 164.388 106.068 164.316 106.101C164.243 106.133 164.172 106.131 164.101 106.097C164.039 106.06 164 106.013 163.983 105.954C163.967 105.893 163.969 105.837 163.99 105.786C164.007 105.743 164.039 105.706 164.083 105.677C164.105 105.66 164.111 105.643 164.101 105.622C164.079 105.566 164.04 105.516 163.984 105.474C163.928 105.432 163.859 105.395 163.779 105.362C163.624 105.298 163.459 105.284 163.284 105.322C163.11 105.36 162.942 105.456 162.783 105.611C162.624 105.766 162.487 105.987 162.375 106.276C162.369 106.289 162.371 106.297 162.383 106.302C162.405 106.312 162.431 106.308 162.459 106.292C162.618 106.208 162.778 106.164 162.937 106.162C163.097 106.157 163.229 106.177 163.334 106.217ZM162.7 107.789C162.852 107.852 162.994 107.872 163.122 107.852C163.252 107.833 163.362 107.787 163.454 107.715C163.544 107.643 163.612 107.557 163.652 107.46C163.708 107.323 163.733 107.203 163.727 107.099C163.722 106.992 163.696 106.901 163.65 106.824C163.602 106.748 163.545 106.683 163.475 106.631C163.406 106.578 163.335 106.537 163.262 106.508C163.132 106.453 162.994 106.436 162.85 106.452C162.706 106.469 162.575 106.519 162.454 106.602C162.335 106.684 162.246 106.795 162.189 106.935C162.178 106.959 162.172 106.977 162.171 106.989C162.159 107.162 162.191 107.318 162.266 107.452C162.341 107.588 162.485 107.7 162.7 107.789Z" fill="#FFECDC"/>
</g>
<g id="Group_38">
<path id="Vector_25" d="M167.181 106.615C167.181 106.638 167.179 106.662 167.176 106.684C167.173 106.709 167.166 106.732 167.157 106.754C167.141 106.795 167.112 106.832 167.073 106.866L164.732 108.871C164.678 108.916 164.619 108.925 164.553 108.898C164.502 108.876 164.469 108.843 164.455 108.801C164.441 108.757 164.443 108.714 164.461 108.673C164.466 108.659 164.473 108.649 164.481 108.639C164.489 108.629 164.497 108.621 164.506 108.611L166.738 106.705C166.743 106.7 166.746 106.694 166.75 106.687C166.756 106.67 166.749 106.657 166.727 106.647L165.345 106.077C165.32 106.067 165.302 106.076 165.293 106.099C165.271 106.166 165.25 106.235 165.227 106.304C165.205 106.373 165.185 106.436 165.164 106.491C165.151 106.539 165.119 106.573 165.069 106.593C165.019 106.615 164.971 106.617 164.924 106.597C164.876 106.576 164.842 106.543 164.826 106.493C164.807 106.444 164.808 106.398 164.831 106.353C164.865 106.284 164.902 106.209 164.944 106.126C164.983 106.045 165.022 105.961 165.059 105.878C165.093 105.813 165.142 105.766 165.209 105.737C165.274 105.708 165.341 105.71 165.409 105.737L167.029 106.405C167.124 106.445 167.175 106.514 167.181 106.615Z" fill="#FFECDC"/>
</g>
<g id="Group_39">
<path id="Vector_26" d="M168.778 108.692C168.737 108.698 168.734 108.711 168.766 108.735C168.931 108.88 169.033 109.039 169.07 109.216C169.108 109.392 169.094 109.556 169.032 109.707C168.958 109.886 168.846 110.021 168.692 110.116C168.539 110.21 168.359 110.258 168.155 110.261C167.95 110.264 167.733 110.219 167.505 110.125C167.275 110.031 167.091 109.91 166.948 109.763C166.807 109.617 166.715 109.458 166.673 109.283C166.631 109.107 166.647 108.931 166.719 108.754C166.788 108.586 166.9 108.457 167.054 108.37C167.207 108.282 167.375 108.239 167.556 108.241C167.592 108.239 167.598 108.224 167.575 108.195C167.484 108.085 167.428 107.961 167.408 107.824C167.388 107.686 167.402 107.561 167.45 107.444C167.513 107.29 167.611 107.171 167.744 107.085C167.876 107 168.031 106.954 168.209 106.948C168.386 106.942 168.574 106.979 168.769 107.059C168.967 107.141 169.126 107.246 169.246 107.377C169.367 107.505 169.444 107.646 169.477 107.8C169.511 107.955 169.496 108.108 169.433 108.261C169.385 108.378 169.305 108.475 169.19 108.558C169.074 108.64 168.937 108.684 168.778 108.692ZM167.615 109.854C167.874 109.961 168.103 109.989 168.302 109.939C168.501 109.89 168.639 109.769 168.718 109.578C168.764 109.464 168.772 109.348 168.741 109.228C168.708 109.107 168.641 108.995 168.536 108.889C168.432 108.782 168.295 108.692 168.123 108.622C167.965 108.557 167.81 108.525 167.661 108.527C167.511 108.529 167.378 108.561 167.265 108.621C167.15 108.682 167.07 108.769 167.024 108.88C166.938 109.087 166.952 109.274 167.063 109.444C167.175 109.612 167.36 109.75 167.615 109.854ZM167.764 107.576C167.703 107.723 167.716 107.869 167.804 108.016C167.891 108.162 168.035 108.276 168.233 108.357C168.36 108.41 168.485 108.435 168.606 108.433C168.726 108.431 168.833 108.402 168.924 108.351C169.015 108.299 169.08 108.227 169.118 108.134C169.178 107.99 169.167 107.843 169.086 107.692C169.005 107.541 168.86 107.422 168.654 107.337C168.53 107.286 168.406 107.262 168.283 107.265C168.159 107.268 168.053 107.297 167.961 107.351C167.868 107.406 167.802 107.482 167.764 107.576Z" fill="#FFECDC"/>
</g>
<g id="Group_40">
<path id="Vector_27" d="M170.515 109.967C170.312 109.883 170.155 109.77 170.047 109.627C169.938 109.486 169.874 109.331 169.854 109.162C169.835 108.994 169.859 108.827 169.926 108.663C170.007 108.467 170.121 108.317 170.269 108.21C170.415 108.104 170.58 108.042 170.763 108.028C170.946 108.013 171.133 108.045 171.323 108.123C171.46 108.18 171.584 108.256 171.695 108.355C171.807 108.453 171.896 108.576 171.959 108.723C172.022 108.871 172.051 109.045 172.041 109.248C172.033 109.449 171.974 109.681 171.865 109.946C171.77 110.178 171.658 110.385 171.528 110.572C171.398 110.756 171.256 110.905 171.097 111.019C170.939 111.132 170.77 111.201 170.588 111.23C170.407 111.256 170.214 111.226 170.01 111.143C169.839 111.072 169.704 110.985 169.608 110.879C169.511 110.775 169.449 110.668 169.421 110.557C169.393 110.446 169.397 110.352 169.43 110.27C169.46 110.199 169.507 110.147 169.576 110.112C169.644 110.078 169.712 110.074 169.777 110.102C169.847 110.13 169.892 110.178 169.913 110.241C169.931 110.306 169.931 110.365 169.907 110.422C169.887 110.468 169.858 110.507 169.818 110.533C169.796 110.548 169.79 110.562 169.798 110.583C169.818 110.641 169.856 110.693 169.91 110.736C169.966 110.781 170.035 110.819 170.119 110.855C170.28 110.92 170.45 110.929 170.631 110.881C170.813 110.832 170.985 110.726 171.15 110.561C171.317 110.395 171.454 110.17 171.564 109.887C171.568 109.877 171.566 109.87 171.558 109.867C171.537 109.859 171.504 109.865 171.463 109.889C171.349 109.959 171.23 110.004 171.11 110.022C170.989 110.041 170.876 110.044 170.771 110.028C170.666 110.015 170.58 109.995 170.515 109.967ZM171.23 108.419C171.059 108.348 170.906 108.322 170.771 108.34C170.635 108.358 170.524 108.404 170.432 108.481C170.342 108.558 170.275 108.65 170.231 108.756C170.171 108.903 170.145 109.03 170.153 109.137C170.161 109.244 170.192 109.334 170.246 109.41C170.299 109.483 170.364 109.545 170.439 109.591C170.515 109.64 170.591 109.676 170.667 109.701C170.796 109.743 170.93 109.755 171.071 109.735C171.211 109.715 171.339 109.666 171.457 109.587C171.574 109.507 171.659 109.402 171.713 109.272C171.723 109.248 171.728 109.229 171.728 109.211C171.739 109.018 171.703 108.856 171.622 108.727C171.543 108.596 171.412 108.494 171.23 108.419Z" fill="#FFECDC"/>
</g>
<g id="Group_41">
<path id="Vector_28" d="M174.149 112.488C174.197 112.501 174.231 112.532 174.251 112.577C174.27 112.625 174.27 112.67 174.25 112.716C174.231 112.762 174.2 112.793 174.154 112.812C174.108 112.83 174.064 112.828 174.018 112.806C173.931 112.76 173.841 112.714 173.745 112.67C173.648 112.623 173.552 112.581 173.455 112.541C173.36 112.501 173.265 112.465 173.17 112.432C173.076 112.399 172.985 112.37 172.9 112.345C172.852 112.329 172.819 112.298 172.798 112.253C172.776 112.206 172.775 112.161 172.794 112.116C172.814 112.068 172.846 112.038 172.894 112.017C172.942 112 172.988 112.002 173.032 112.027C173.15 112.088 173.27 112.149 173.394 112.205C173.417 112.216 173.435 112.208 173.444 112.183L174.362 109.96C174.376 109.925 174.366 109.909 174.329 109.912L173.947 109.937C173.92 109.938 173.895 109.934 173.87 109.925C173.802 109.896 173.766 109.845 173.76 109.774C173.763 109.76 173.765 109.746 173.766 109.732C173.765 109.719 173.769 109.708 173.774 109.698C173.801 109.631 173.851 109.598 173.926 109.593L174.645 109.551C174.669 109.548 174.693 109.551 174.717 109.561C174.758 109.578 174.789 109.607 174.808 109.648C174.827 109.69 174.827 109.734 174.808 109.78L173.763 112.315C173.753 112.338 173.761 112.357 173.787 112.368C173.914 112.415 174.036 112.454 174.149 112.488Z" fill="#FFECDC"/>
</g>
<g id="Group_42">
<path id="Vector_29" d="M177.05 110.481C177.278 110.575 177.459 110.714 177.591 110.897C177.722 111.08 177.792 111.303 177.8 111.569C177.808 111.832 177.744 112.132 177.607 112.467C177.462 112.818 177.292 113.088 177.095 113.276C176.9 113.464 176.691 113.578 176.467 113.618C176.244 113.657 176.018 113.631 175.79 113.538C175.56 113.443 175.382 113.303 175.251 113.117C175.122 112.932 175.054 112.703 175.049 112.432C175.044 112.161 175.114 111.851 175.26 111.499C175.398 111.165 175.564 110.907 175.757 110.725C175.948 110.544 176.156 110.435 176.379 110.397C176.6 110.36 176.824 110.387 177.05 110.481ZM175.911 113.244C176.068 113.308 176.23 113.321 176.396 113.283C176.561 113.245 176.721 113.15 176.874 112.995C177.029 112.843 177.163 112.624 177.28 112.343C177.392 112.073 177.445 111.833 177.441 111.621C177.437 111.409 177.391 111.232 177.3 111.091C177.21 110.948 177.085 110.844 176.928 110.778C176.772 110.714 176.611 110.701 176.445 110.738C176.28 110.773 176.12 110.866 175.972 111.015C175.821 111.162 175.69 111.371 175.578 111.641C175.462 111.923 175.404 112.173 175.404 112.389C175.404 112.606 175.448 112.786 175.54 112.93C175.632 113.075 175.755 113.18 175.911 113.244Z" fill="#FFECDC"/>
</g>
<g id="Group_43">
<path id="Vector_30" d="M178.907 114.451C178.956 114.466 178.989 114.495 179.009 114.54C179.028 114.587 179.028 114.633 179.008 114.679C178.989 114.726 178.958 114.758 178.912 114.776C178.867 114.793 178.821 114.791 178.776 114.77C178.69 114.723 178.599 114.678 178.503 114.633C178.407 114.587 178.31 114.544 178.213 114.504C178.118 114.464 178.022 114.429 177.928 114.395C177.833 114.363 177.743 114.333 177.658 114.309C177.61 114.292 177.577 114.261 177.556 114.216C177.534 114.17 177.533 114.126 177.552 114.078C177.571 114.033 177.604 114 177.652 113.981C177.7 113.964 177.746 113.967 177.79 113.99C177.908 114.052 178.027 114.112 178.151 114.169C178.175 114.178 178.193 114.171 178.202 114.146L179.12 111.923C179.134 111.889 179.124 111.872 179.086 111.877L178.703 111.901C178.677 111.902 178.652 111.898 178.627 111.889C178.559 111.86 178.524 111.809 178.518 111.736C178.52 111.722 178.523 111.708 178.524 111.696C178.523 111.684 178.525 111.672 178.53 111.662C178.558 111.596 178.609 111.561 178.683 111.557L179.403 111.514C179.427 111.512 179.451 111.514 179.475 111.525C179.516 111.542 179.545 111.57 179.566 111.612C179.584 111.653 179.584 111.697 179.566 111.744L178.52 114.278C178.511 114.302 178.519 114.321 178.546 114.332C178.673 114.378 178.794 114.416 178.907 114.451Z" fill="#FFECDC"/>
</g>
<g id="Group_44">
<path id="Vector_31" d="M180.878 115.264C180.927 115.278 180.96 115.308 180.981 115.353C180.999 115.399 180.999 115.445 180.979 115.492C180.96 115.538 180.929 115.569 180.883 115.588C180.838 115.606 180.791 115.604 180.748 115.582C180.661 115.536 180.571 115.49 180.474 115.445C180.378 115.399 180.282 115.356 180.184 115.316C180.089 115.277 179.994 115.241 179.899 115.207C179.804 115.175 179.714 115.145 179.629 115.121C179.581 115.104 179.547 115.073 179.527 115.028C179.505 114.982 179.504 114.938 179.523 114.89C179.542 114.845 179.575 114.812 179.623 114.792C179.671 114.776 179.717 114.777 179.761 114.802C179.879 114.864 179.999 114.923 180.123 114.98C180.146 114.99 180.164 114.983 180.173 114.958L181.09 112.735C181.106 112.7 181.095 112.683 181.058 112.688L180.675 112.712C180.649 112.714 180.624 112.71 180.599 112.7C180.531 112.672 180.495 112.62 180.489 112.548C180.492 112.534 180.494 112.52 180.495 112.508C180.494 112.496 180.497 112.484 180.501 112.473C180.529 112.407 180.58 112.372 180.654 112.369L181.374 112.326C181.397 112.324 181.421 112.326 181.446 112.337C181.486 112.353 181.516 112.381 181.536 112.423C181.555 112.465 181.555 112.509 181.536 112.555L180.491 115.09C180.482 115.114 180.49 115.133 180.516 115.144C180.644 115.19 180.765 115.229 180.878 115.264Z" fill="#FFECDC"/>
</g>
</g>
</g>
</g>
<g id="Group_45">
<g id="Group_46">
<path id="Vector_32" d="M162.043 168.606C162.043 168.606 161.525 150.992 162.768 142.392C164.011 133.793 172.248 119.935 174.735 119.832C177.222 119.728 190.432 134.933 190.432 134.933L194.888 143.118L185.148 158.659V167.57L162.043 168.606Z" fill="#FF9285"/>
</g>
<g id="Group_47">
<path id="Vector_33" d="M194.887 143.118C194.887 143.118 195.561 140.19 194.55 137.859C193.54 135.528 192.064 131.41 191.831 129.079C191.598 126.748 191.365 120.997 188.723 118.588C186.081 116.179 180.641 115.169 178.465 115.791C176.289 116.412 170.15 119.365 170.694 121.23C171.238 123.095 172.404 123.639 173.724 123.717C175.045 123.794 178.154 123.173 178.154 123.173C178.154 123.173 171.237 126.825 170.305 131.021C169.373 135.217 168.207 137.782 171.082 138.792L184.137 146.485L194.887 143.118Z" fill="#FF9285"/>
</g>
<g id="Group_48">
<g id="Group_49">
<path id="Vector_34" d="M153.444 229.107C153.444 229.107 153.443 229.107 153.442 229.107C153.274 229.107 153.139 228.971 153.139 228.802C153.148 226.99 153.356 184.368 154.178 178.407C154.9 173.178 158.369 172.742 159.5 172.742C159.505 172.742 159.51 172.742 159.515 172.742L159.563 168.499C159.566 168.336 159.696 168.202 159.86 168.199L186.384 167.577C186.56 167.599 186.69 167.706 186.696 167.872L186.843 172.794C187.387 172.896 188.628 173.268 189.843 174.626C191.444 176.414 193.24 180.259 192.705 188.415C192.062 198.224 190.852 224.615 190.84 224.88C190.833 225.047 190.716 225.191 190.522 225.17C190.354 225.163 190.224 225.02 190.232 224.853C190.244 224.587 191.454 198.19 192.097 188.376C192.616 180.456 190.923 176.76 189.411 175.054C188 173.463 186.547 173.366 186.532 173.365C186.374 173.356 186.248 173.228 186.243 173.069L186.096 168.192L160.169 168.799L160.12 173.064C160.119 173.151 160.08 173.234 160.014 173.29C159.949 173.348 159.86 173.377 159.775 173.362C159.603 173.343 155.556 172.868 154.781 178.49C153.964 184.41 153.75 228.361 153.748 228.804C153.747 228.973 153.612 229.107 153.444 229.107Z" fill="#371005"/>
</g>
<g id="Group_50">
<path id="Vector_35" d="M185.77 123.945C185.728 123.945 185.687 123.936 185.646 123.918L180.829 121.788C179.841 122.09 174.753 123.632 173.7 123.632C172.214 123.632 170.551 122.905 170.407 121.307C170.234 119.374 172.451 118.221 173.919 117.458C174.083 117.373 174.238 117.292 174.38 117.216C175.753 116.476 177.386 115.671 179.076 115.312C181.569 114.781 185.859 116.497 186.04 116.57C186.196 116.634 186.271 116.81 186.209 116.967C186.146 117.123 185.967 117.198 185.812 117.135C185.769 117.118 181.514 115.42 179.203 115.907C177.587 116.251 176.004 117.033 174.669 117.753C174.525 117.83 174.367 117.912 174.2 117.999C172.798 118.728 170.877 119.726 171.014 121.254C171.123 122.47 172.483 123.025 173.7 123.025C174.555 123.025 179.086 121.688 180.76 121.173C180.829 121.152 180.905 121.156 180.972 121.186L185.893 123.362C186.048 123.43 186.117 123.61 186.049 123.763C185.998 123.877 185.887 123.945 185.77 123.945Z" fill="#371005"/>
</g>
<g id="Group_51">
<path id="Vector_36" d="M172.042 139.121C171.987 139.121 170.698 139.11 169.788 138.03C168.921 137 169.51 134.149 170.661 130.185C171.552 127.115 175.699 124.166 178.009 122.906C179.771 121.946 185.6 123.383 186.259 123.551C186.423 123.593 186.521 123.758 186.479 123.922C186.438 124.083 186.272 124.184 186.109 124.141C184.384 123.703 179.615 122.722 178.3 123.44C176.073 124.655 172.081 127.477 171.246 130.355C170.746 132.076 169.419 136.646 170.253 137.638C170.983 138.503 172.031 138.514 172.041 138.514C172.21 138.514 172.346 138.65 172.346 138.818C172.346 138.986 172.21 139.121 172.042 139.121Z" fill="#371005"/>
</g>
<g id="Group_52">
<path id="Vector_37" d="M175.18 144.216C174.528 144.216 173.254 144.101 172.353 143.291C171.704 142.707 171.375 141.882 171.375 140.839C171.375 137.106 177.426 129.672 180.365 128.99C183.373 128.287 188.484 132.143 188.7 132.307C188.833 132.409 188.86 132.6 188.758 132.734C188.656 132.867 188.463 132.893 188.332 132.792C188.281 132.753 183.228 128.951 180.503 129.582C177.791 130.211 171.984 137.385 171.984 140.839C171.984 141.703 172.245 142.375 172.76 142.837C173.793 143.766 175.516 143.596 175.533 143.592C175.693 143.575 175.85 143.696 175.868 143.863C175.886 144.03 175.764 144.18 175.597 144.198C175.575 144.2 175.42 144.216 175.18 144.216Z" fill="#371005"/>
</g>
<g id="Group_53">
<path id="Vector_38" d="M176.829 145.794C176.509 145.794 176.225 145.672 175.993 145.434C174.9 144.313 175.299 140.772 175.635 139.615C175.912 138.66 177.487 137.823 178.401 137.409C180.292 136.555 182.781 135.959 183.879 136.471C185.544 137.252 189.313 140.011 189.473 140.128C189.608 140.227 189.637 140.418 189.538 140.553C189.439 140.691 189.248 140.719 189.113 140.619C189.074 140.59 185.232 137.777 183.62 137.022C182.826 136.649 180.642 137.063 178.652 137.964C177.3 138.576 176.368 139.274 176.22 139.785C175.825 141.14 175.646 144.206 176.429 145.009C176.593 145.178 176.782 145.224 177.041 145.155C178.854 144.679 180.152 142.225 180.164 142.201C180.242 142.053 180.425 141.995 180.574 142.071L184.407 144.04C184.557 144.116 184.616 144.299 184.539 144.449C184.462 144.599 184.279 144.656 184.129 144.581L180.556 142.746C180.143 143.444 178.907 145.294 177.197 145.743C177.069 145.776 176.946 145.794 176.829 145.794Z" fill="#371005"/>
</g>
</g>
</g>
</g>
</g>
<g id="Group_54">
<g id="Group_55">
<path id="Vector_39" d="M154.973 228.96H29.6886L15.749 153.48L48.0472 153.395L141.63 153.164L154.973 228.96Z" fill="#371005"/>
</g>
<g id="Group_56">
<path id="Vector_40" d="M96.6767 193.646C97.996 185.6 92.5425 178.007 84.4958 176.688C76.4492 175.369 68.8566 180.822 67.5373 188.868C66.218 196.915 71.6715 204.507 79.7181 205.826C87.7648 207.146 95.3574 201.692 96.6767 193.646Z" fill="#FFECDC"/>
</g>
</g>
<g id="Group_57">
<g id="Group_58">
<path id="Vector_41" d="M188.232 51.8956L193.599 53.3906L189.382 54.2147C184.592 55.1507 180.756 58.7411 179.507 63.4601L178.058 68.9321L177.22 64.3475C176.248 59.0273 172.023 54.8994 166.682 54.0519L162.517 53.3906L167.482 52.256C172.353 51.1426 176.123 47.2862 177.127 42.392L178.058 37.8496L179.299 42.7484C180.421 47.1784 183.83 50.6688 188.232 51.8956Z" fill="white"/>
</g>
<g id="Group_59">
<path id="Vector_42" d="M39.0557 147.911L42.115 148.763L39.7115 149.233C36.981 149.766 34.7949 151.813 34.0827 154.502L33.2567 157.622L32.7793 155.009C32.2253 151.976 29.8172 149.623 26.7726 149.14L24.3984 148.763L27.2289 148.116C30.0048 147.481 32.1543 145.283 32.7261 142.494L33.2572 139.904L33.9644 142.697C34.6032 145.222 36.5463 147.211 39.0557 147.911Z" fill="white"/>
</g>
<g id="Group_60">
<path id="Vector_43" d="M208.148 189.77L211.207 190.622L208.803 191.092C206.073 191.625 203.887 193.672 203.174 196.362L202.349 199.481L201.871 196.868C201.317 193.835 198.909 191.483 195.864 190.999L193.49 190.622L196.321 189.975C199.097 189.341 201.246 187.143 201.818 184.353L202.349 181.764L203.056 184.556C203.695 187.082 205.638 189.071 208.148 189.77Z" fill="white"/>
</g>
<g id="Group_61">
<path id="Vector_44" d="M207.231 119.741L209.503 120.374L207.718 120.723C205.69 121.119 204.066 122.639 203.537 124.637L202.924 126.954L202.569 125.013C202.158 122.761 200.369 121.013 198.108 120.654L196.345 120.374L198.447 119.893C200.509 119.422 202.105 117.79 202.53 115.718L202.924 113.795L203.449 115.869C203.925 117.744 205.368 119.222 207.231 119.741Z" fill="white"/>
</g>
<g id="Group_62">
<path id="Vector_45" d="M62.8452 44.3134L65.1171 44.9463L63.3318 45.2952C61.3039 45.6915 59.68 47.2113 59.1512 49.2094L58.5381 51.5258L58.1836 49.585C57.7722 47.3328 55.9837 45.5855 53.7223 45.2265L51.959 44.9463L54.0612 44.4656C56.1231 43.9942 57.719 42.362 58.1441 40.2901L58.5385 38.3672L59.0636 40.441C59.5383 42.3166 60.981 43.7938 62.8452 44.3134Z" fill="white"/>
</g>
<g id="Group_63">
<path id="Vector_46" d="M74.6558 79.3339L76.9277 79.9668L75.1423 80.3158C73.1144 80.712 71.4905 82.2318 70.9617 84.2299L70.3486 86.5463L69.9941 84.6055C69.5827 82.3533 67.7942 80.606 65.5328 80.247L63.7695 79.9668L65.8717 79.4861C67.9336 79.0147 69.53 77.3826 69.9547 75.3106L70.3491 73.3877L70.8742 75.4615C71.3488 77.3372 72.792 78.8148 74.6558 79.3339Z" fill="white"/>
</g>
<g id="Group_64">
<path id="Vector_47" d="M27.8247 191.646L30.0966 192.279L28.3112 192.628C26.2833 193.024 24.6594 194.544 24.1307 196.542L23.5171 198.858L23.1626 196.918C22.7512 194.665 20.9627 192.918 18.7013 192.559L16.938 192.279L19.0402 191.799C21.1021 191.327 22.698 189.695 23.1231 187.623L23.5175 185.7L24.0431 187.774C24.5177 189.649 25.9609 191.127 27.8247 191.646Z" fill="white"/>
</g>
</g>
</g>
</g>
</svg>
