<svg width="24" height="24" viewBox="0 0 24 24" fill="none" xmlns="http://www.w3.org/2000/svg">
<g id="Vector">
<path id="Vector_2" d="M13 0H5C2.243 0 0 2.24263 0 4.99917V17.851C0 18.6439 0.435 19.3698 1.134 19.7447C1.452 19.9157 1.801 19.9997 2.149 19.9997C2.565 19.9997 2.98 19.8787 3.34 19.6397L7.303 16.9972H13C15.757 16.9972 18 14.7545 18 11.998V4.99917C18 2.24263 15.757 0 13 0ZM24 8.9985V21.8504C24 22.6432 23.565 23.3691 22.866 23.744C22.548 23.915 22.199 23.999 21.851 24C21.435 24 21.02 23.879 20.661 23.6401L16.697 20.9965H11C9.55 20.9965 8.253 20.3656 7.339 19.3768L7.908 18.9968H13C16.859 18.9968 20 15.8564 20 11.998V4.99917C20 4.69122 19.973 4.39127 19.935 4.09332C22.246 4.53324 24 6.56191 24 8.9985Z" fill="#1572A1"/>
</g>
</svg>
