<svg width="24" height="24" viewBox="0 0 24 24" fill="none" xmlns="http://www.w3.org/2000/svg">
<path d="M21.0525 16.995L19.77 15.15C19.5949 14.8992 19.5007 14.6009 19.5 14.295V9C19.5 7.01088 18.7098 5.10322 17.3033 3.6967C15.8968 2.29018 13.9891 1.5 12 1.5C10.0109 1.5 8.10322 2.29018 6.6967 3.6967C5.29017 5.10322 4.5 7.01088 4.5 9V14.295C4.49927 14.6009 4.40506 14.8992 4.23 15.15L2.9475 16.995C2.75331 17.2102 2.62561 17.477 2.57985 17.7632C2.53409 18.0494 2.57222 18.3427 2.68964 18.6077C2.80706 18.8727 2.99873 19.098 3.24148 19.2563C3.48423 19.4147 3.76766 19.4993 4.0575 19.5H8.325C8.49713 20.3477 8.95705 21.1099 9.6268 21.6573C10.2966 22.2047 11.135 22.5038 12 22.5038C12.865 22.5038 13.7034 22.2047 14.3732 21.6573C15.043 21.1099 15.5029 20.3477 15.675 19.5H19.9425C20.2323 19.4993 20.5158 19.4147 20.7585 19.2563C21.0013 19.098 21.1929 18.8727 21.3104 18.6077C21.4278 18.3427 21.4659 18.0494 21.4201 17.7632C21.3744 17.477 21.2467 17.2102 21.0525 16.995ZM12 21C11.5358 20.9987 11.0833 20.8538 10.7047 20.5853C10.3261 20.3168 10.0397 19.9377 9.885 19.5H14.115C13.9603 19.9377 13.6739 20.3168 13.2953 20.5853C12.9166 20.8538 12.4642 20.9987 12 21ZM4.0575 18C4.0914 17.9685 4.12159 17.9333 4.1475 17.895L5.46 16.005C5.81013 15.5034 5.99855 14.9067 6 14.295V9C6 7.4087 6.63214 5.88258 7.75736 4.75736C8.88258 3.63214 10.4087 3 12 3C13.5913 3 15.1174 3.63214 16.2426 4.75736C17.3679 5.88258 18 7.4087 18 9V14.295C18.0014 14.9067 18.1899 15.5034 18.54 16.005L19.8525 17.895C19.8784 17.9333 19.9086 17.9685 19.9425 18H4.0575Z" fill="black"/>
</svg>
