<svg width="33" height="33" viewBox="0 0 33 33" fill="none" xmlns="http://www.w3.org/2000/svg">
<g id="logos:facebook" clip-path="url(#clip0_316_2004)">
<path id="Vector" d="M32.5 16.5C32.5 7.6635 25.3365 0.5 16.5 0.5C7.6635 0.5 0.5 7.66337 0.5 16.5C0.5 24.486 6.351 31.1054 14 32.3056V21.125H9.9375V16.5H14V12.975C14 8.965 16.3888 6.75 20.0434 6.75C21.794 6.75 23.625 7.0625 23.625 7.0625V11H21.6075C19.6198 11 19 12.2334 19 13.4987V16.5H23.4375L22.7281 21.125H19V32.3056C26.649 31.1054 32.5 24.4861 32.5 16.5Z" fill="#1877F2"/>
<path id="Vector_2" d="M22.7281 21.125L23.4375 16.5H19V13.4987C19 12.2332 19.6199 11 21.6075 11H23.625V7.0625C23.625 7.0625 21.794 6.75 20.0434 6.75C16.3888 6.75 14 8.965 14 12.975V16.5H9.9375V21.125H14V32.3056C14.827 32.4352 15.6629 32.5002 16.5 32.5C17.3371 32.5002 18.173 32.4353 19 32.3056V21.125H22.7281Z" fill="white"/>
</g>
<defs>
<clipPath id="clip0_316_2004">
<rect width="32" height="32" fill="white" transform="translate(0.5 0.5)"/>
</clipPath>
</defs>
</svg>
